<svg width="36" height="36" viewBox="0 0 36 36" fill="none" xmlns="http://www.w3.org/2000/svg">
<path d="M7.2375 26.925C8.725 25.7875 10.3875 24.8906 12.225 24.2344C14.0625 23.5781 15.9875 23.25 18 23.25C20.0125 23.25 21.9375 23.5781 23.775 24.2344C25.6125 24.8906 27.275 25.7875 28.7625 26.925C29.7833 25.7292 30.5781 24.3729 31.1469 22.8563C31.7156 21.3396 32 19.7208 32 18C32 14.1208 30.6365 10.8177 27.9094 8.09063C25.1823 5.36354 21.8792 4 18 4C14.1208 4 10.8177 5.36354 8.09063 8.09063C5.36354 10.8177 4 14.1208 4 18C4 19.7208 4.28437 21.3396 4.85312 22.8563C5.42187 24.3729 6.21667 25.7292 7.2375 26.925ZM18 19.75C16.2792 19.75 14.8281 19.1594 13.6469 17.9781C12.4656 16.7969 11.875 15.3458 11.875 13.625C11.875 11.9042 12.4656 10.4531 13.6469 9.27188C14.8281 8.09063 16.2792 7.5 18 7.5C19.7208 7.5 21.1719 8.09063 22.3531 9.27188C23.5344 10.4531 24.125 11.9042 24.125 13.625C24.125 15.3458 23.5344 16.7969 22.3531 17.9781C21.1719 19.1594 19.7208 19.75 18 19.75ZM18 35.5C15.5792 35.5 13.3042 35.0406 11.175 34.1219C9.04583 33.2031 7.19375 31.9563 5.61875 30.3813C4.04375 28.8063 2.79688 26.9542 1.87813 24.825C0.959375 22.6958 0.5 20.4208 0.5 18C0.5 15.5792 0.959375 13.3042 1.87813 11.175C2.79688 9.04583 4.04375 7.19375 5.61875 5.61875C7.19375 4.04375 9.04583 2.79688 11.175 1.87813C13.3042 0.959375 15.5792 0.5 18 0.5C20.4208 0.5 22.6958 0.959375 24.825 1.87813C26.9542 2.79688 28.8063 4.04375 30.3813 5.61875C31.9563 7.19375 33.2031 9.04583 34.1219 11.175C35.0406 13.3042 35.5 15.5792 35.5 18C35.5 20.4208 35.0406 22.6958 34.1219 24.825C33.2031 26.9542 31.9563 28.8063 30.3813 30.3813C28.8063 31.9563 26.9542 33.2031 24.825 34.1219C22.6958 35.0406 20.4208 35.5 18 35.5Z" fill="#FEF7FF"/>
</svg>
