<svg width="40" height="40" viewBox="0 0 40 40" fill="none" xmlns="http://www.w3.org/2000/svg">
<path d="M20 25.25C21.4583 25.25 22.6979 24.7396 23.7188 23.7188C24.7396 22.6979 25.25 21.4583 25.25 20C25.25 18.5417 24.7396 17.3021 23.7188 16.2812C22.6979 15.2604 21.4583 14.75 20 14.75C18.5417 14.75 17.3021 15.2604 16.2812 16.2812C15.2604 17.3021 14.75 18.5417 14.75 20C14.75 21.4583 15.2604 22.6979 16.2812 23.7188C17.3021 24.7396 18.5417 25.25 20 25.25ZM20 28.75C17.5792 28.75 15.5156 27.8969 13.8094 26.1906C12.1031 24.4844 11.25 22.4208 11.25 20C11.25 17.5792 12.1031 15.5156 13.8094 13.8094C15.5156 12.1031 17.5792 11.25 20 11.25C22.4208 11.25 24.4844 12.1031 26.1906 13.8094C27.8969 15.5156 28.75 17.5792 28.75 20C28.75 22.4208 27.8969 24.4844 26.1906 26.1906C24.4844 27.8969 22.4208 28.75 20 28.75ZM7.75 21.75H0.75V18.25H7.75V21.75ZM39.25 21.75H32.25V18.25H39.25V21.75ZM18.25 7.75V0.75H21.75V7.75H18.25ZM18.25 39.25V32.25H21.75V39.25H18.25ZM10.2 12.5625L5.78125 8.31875L8.275 5.7375L12.475 10.1125L10.2 12.5625ZM31.725 34.2625L27.4813 29.8438L29.8 27.4375L34.2188 31.6813L31.725 34.2625ZM27.4375 10.2L31.6813 5.78125L34.2625 8.275L29.8875 12.475L27.4375 10.2ZM5.7375 31.725L10.1562 27.4813L12.5625 29.8L8.31875 34.2188L5.7375 31.725Z" fill="#FEF7FF"/>
</svg>
